<?xml version="1.0" encoding="utf-8"?>
<!-- Generator: Adobe Illustrator 28.2.0, SVG Export Plug-In . SVG Version: 6.00 Build 0)  -->
<svg version="1.1" id="Logo" xmlns="http://www.w3.org/2000/svg" xmlns:xlink="http://www.w3.org/1999/xlink" x="0px" y="0px"
	 viewBox="0 0 2681.2 3000" style="enable-background:new 0 0 2681.2 3000;" xml:space="preserve">
<style type="text/css">
	.st0{fill:none;}
	.st1{fill:url(#SVGID_1_);}
	.st2{fill:url(#SVGID_00000051349508468057765380000011717286277198779288_);}
	.st3{fill:url(#SVGID_00000000940555686460746900000012664955277134270633_);}
	.st4{fill:url(#SVGID_00000011747047975469790010000007203097633987459771_);}
	.st5{fill:#DD2007;}
	.st6{fill:#E46010;}
	.st7{fill:#FF7700;}
	.st8{fill:#FFFFFF;}
	.st9{fill:url(#SVGID_00000097463083993231768630000000849318357082597504_);}
	.st10{fill:url(#SVGID_00000117668011720612109520000017920271712861701511_);}
	.st11{fill:url(#SVGID_00000054944989061074428590000003324789233211684255_);}
	.st12{fill:url(#SVGID_00000093167690048001032780000000823907925508625579_);}
	.st13{fill:url(#SVGID_00000136396296869561065220000018371059560266795167_);}
	.st14{fill:url(#SVGID_00000163074248525239919590000003711906808201475491_);}
	.st15{fill:url(#SVGID_00000086669312362378591900000007932205472564375475_);}
	.st16{fill:url(#SVGID_00000183959927870922949180000001980801868287789210_);}
</style>
<g>
	<path d="M2506.8,1827.2c-9.6-12.8-17.6-23.3-24.5-32.1c5.8-3.6,12.2-7.8,19.7-12.5c32.2-20.7,65-41.7,97.5-62.3l81.7-51.8
		l-95.4-16.3c-37.5-6.5-75.3-12.8-112.3-18.7l-14.9-2.4l-12.4,8.6c-18.5,12.9-37.2,26-55.9,39.2c-12.5-17.3-24.9-34.7-37.5-51.9
		l-9.3-12.9l-15.8-2.2c-39.2-5.3-78.8-10.5-117.9-15.2l0-0.2l-21.3-2.5l-70.7-7.9c-10.3-1.1-21.2-2.3-34.8-3.7l-8.2-0.8
		c-0.5,0.4-0.9,0.9-1.3,1.3c0.4-0.5,0.9-0.9,1.3-1.3h0c9.8-10.2,19.3-21.3,28.4-33.4c56.5-75.4,91.5-166.9,101.9-275.9
		c3.6,70.7,1.7,166.2,1.7,166.2s151.1-82.9,150.8-367.8c-0.3-318.4-155.5-469.7-283.7-591.2c-59.1-56-106.4-106.3-139.1-160.7
		C1824.2,135.3,2002.3,0,2002.3,0s-178.4,11.7-242.2,211.6c-47.2,148.1-3.5,210.2,88.7,309.1c9.4,10.1,59.3,53.3,48.9,159.2
		c0,0-61.9-52.6-130.1-89.3l-83.3-44.8l36.4,87.4c31,73.9,82.6,246,3.4,322.4c-43,41.6-136.6,67.9-136.6,67.9
		c6.8,12.6,9.6,34.7,9.6,59c0,42.7-8.5,92.1-17.6,108.6c-1.8,3.2-8.2,22-33.9,14.7c-15.9-4.5-35.1-30.7-57-109.6
		c-20.1-72.5-1.9-167.8,3.6-196.3c22.9-82,55-131.8,95.9-148.3c32.9-13.4,72.4-5,117.4,24.9l16.8,11.1c0,0-7.4-48.5-13.9-71
		c-6.4-22.5-40.8-75.4-90-91.6c-15.4-4.8-31.8-6.3-48.4-4.5c-27.3,2.2-44.3,8.7-58,13.9c-4.1,1.6-7.7,2.9-11.1,4l-15.7-2.6
		c-120.7-20.2-172.9,48.8-221.7,107.3c-91.3,109.3-104.4,106.3-220.4,103.4c0,0,16.1,79.2,102,80c-26.3,26.3-115.1,30.7-115.1,30.7
		s72.5,90.1,189.5,44.8c-2.8,19-61.4,203.9-110.2,215.1c-26.4,5.9-38.3-13-44.5-21.4c-27.2-37-16.2-113.3-9.7-139.6l6.5-25.7
		l-23.6-12.3c-15.7-8.2-60.9-34.9-80.8-60.1c-68-86.4-27.5-248.6,3.5-322.4l36.3-87.3l-83.3,44.8c-68.2,36.7-130.1,89.3-130.1,89.3
		C773,576.2,823,532.9,832.4,522.8c92.2-98.9,136-161,88.7-309.1C857.4,13.8,679,2.1,679,2.1s178,135.3,67.6,318.7
		c-32.7,54.4-80.1,104.7-139.1,160.6c-128.3,121.6-283.5,272.9-283.8,591.2c-0.3,285,150.8,367.8,150.8,367.8s-1.9-95.5,1.7-166.2
		c10.4,109,45.4,200.6,101.9,275.9c8.6,11.4,17.5,22,26.7,31.7l-7.8,0.8l-4.9,27.8c-1.7,9.7-3.4,19.3-5,29c-3.9-4.6-8.2-9.1-13-13.1
		c-29.3-24.7-74.2-35.2-117.3-27.8c-119.7,15.2-240.6,33.1-359.3,53.5L0,1668.8l84.1,51.8c30.9,19,62.3,38.4,93.2,57.7l11.8,7.4
		l1.1-0.2l-31,183.7l51.2-8.2c34.6-5.5,51.4-8.1,85.9-13.2l26.6-3.9l10.9-61.8c32.9-4.7,66.1-9.2,98.7-13.4
		c43.8-5.3,89.4-22.7,123.5-51.6c-3,16.8-5.9,33.5-8.8,50.3l-8.5,48.7l49.1-5.2c35-3.7,52.1-5.4,87-8.7l28.4-2.6l16.6-94.9
		c20.8-1.8,41.7-3.5,62.5-5.1l-16.6,94.6l47.7-3.5c34.9-2.6,51.9-3.8,86.8-5.9l29.3-1.8l5.1-28.9c2.4-14,4.9-27.8,7.3-41.7
		c4.6,6.7,9.8,12.9,15.8,18.6c35.3,34,88.8,45.2,135.9,47.3c1.4,0.1,2.8,0.1,4.1,0.2l11.3,61.4l10.8,8.8c15.5,12.7,29.8,26,43,40
		l1.6,87c1.1,58.2-91,218.7-150.7,226.6l-41,5.4l10.7,44.5c59.2,159.5-76.8,245-76.8,245s174.8,26.6,285.5-206.5
		c-2.4,10.1-4.9,20.3-7.6,30.5c-28.2,105.8-66.8,181.6-103.1,202.6l-30,17.3l15,31.2c90.8,156.1-26.2,327.7-26.2,327.7
		c86.8-1.6,300.3-138.6,296.9-502.6l1.9,33c3.4,350.8,216.6,468,301.9,469.6c0,0-117-171.6-26.2-327.7l15-31.2l-30-17.3
		c-36.4-21-74.9-96.8-103.1-202.6c-2.7-10.2-5.2-20.4-7.6-30.5c110.7,233.1,285.5,206.5,285.5,206.5s-136-85.5-76.8-245l10.7-44.5
		l-41-5.4c-59.7-7.9-151.7-168.4-150.6-226.6l1.6-83.8c14-15.2,29.3-29.5,46-43.2l10.8-8.8l11.8-64.5c1.3,0,2.6,0.1,3.8,0.1
		c2.6,0.1,5.2,0.2,7.9,0.2l16.3,0.5l11.5-11.6c5.5-5.6,11-11.2,16.6-16.8l-5.2,29.2l42.4,2c31.6,1.5,47.1,2.2,78.9,4.1l33.1,1.9
		l16.5-93.7c23.1,26.2,46.2,52.5,69,78.7c16.1,18.9,34.4,28.6,57.2,30.4c2.5,0.2,5.1,0.3,7.7,0.3c17.5,0,35.4-4.9,50.8-15.5
		l-2.7,15.1l40.2,3.9c35,3.4,52,5.1,86.7,8.9l21.1,2.3l10.3,1.2c35.8,4.1,72.2,8.6,108,13.1l14.3,1.8l11.8-8.3
		c21-14.7,42.2-29.5,63.1-44.1c13.9,19.1,27.7,38.2,41.6,57.3l9.2,12.7l15.4,2.3c40.3,6.1,81.2,12.7,121.6,19.5l91.5,15.4
		l-55.4-74.5C2549.1,1883.7,2527.9,1855.4,2506.8,1827.2z M2183.3,1810l18.4-124.6l53.1,81.7L2183.3,1810z"/>
	<g>
		<g>
			<path class="st0" d="M1399.2,1380.4c17.7,0.1,32.8,0.3,54.8,0.7l-86.5-223.4C1368.4,1162.5,1392.9,1297.2,1399.2,1380.4z"/>
			<path class="st0" d="M1291.8,930.8c0,0.4-0.1,0.8-0.2,1.3c0.1-0.1,0.1-0.1,0.2-0.2L1291.8,930.8z"/>
			<path class="st0" d="M1292.1,931.7c-0.1,0-0.1,0.1-0.2,0.1l0,1.2C1292,932.6,1292,932.2,1292.1,931.7z"/>
			<path class="st0" d="M1223.2,1383.3c8.6,3.4,15.2,8.6,19.7,13.5c0.6,0.7,1.3,1.3,1.9,2l3.3-18.1l29.1-0.2
				c4.3-83.7,31.6-218.3,32.5-222.9L1223.2,1383.3z"/>
			<linearGradient id="SVGID_1_" gradientUnits="userSpaceOnUse" x1="1338.3256" y1="2330.7014" x2="1338.3256" y2="51.4103">
				<stop  offset="4.469274e-02" style="stop-color:#E02F05"/>
				<stop  offset="0.2151" style="stop-color:#F27808"/>
				<stop  offset="0.4358" style="stop-color:#FF5C00"/>
				<stop  offset="0.9888" style="stop-color:#FF8E00"/>
			</linearGradient>
			<path class="st1" d="M1309.2,1870.8l7.8-43.6c0.6-3.5,1.2-7,1.9-10.4c-42.1,36.7-106.5,58-189.8,61.4l7.9,42.2
				c38.3,31.2,69,65.3,94.2,103c1.9,2.8,3.7,5.6,5.5,8.5c1.5,2.3,2.9,4.6,4.3,6.9c19.8,32.1,35.8,66.8,49.3,104.4
				c0.9,2.5,1.8,5,2.7,7.5c0.5,1.3,0.9,2.7,1.4,4c19,54.8,32.6,114,43.6,175.9c11.4-64.5,25.7-126,46-182.7c1-2.8,2-5.7,3.1-8.5
				c13.3-36.4,29.1-70.1,48.4-101.3v0c1.3-2.1,2.6-4.2,3.9-6.2c0.6-0.9,1.2-1.9,1.8-2.8c25.9-40,57.7-75.9,97.9-108.7l8.6-46.1
				c-64.6-1.8-129.7-2.9-194.2-3.2L1309.2,1870.8z"/>
			
				<linearGradient id="SVGID_00000126318631655621938490000010130378334206424976_" gradientUnits="userSpaceOnUse" x1="1929.8192" y1="2330.7017" x2="1929.8192" y2="51.4105">
				<stop  offset="4.469274e-02" style="stop-color:#E02F05"/>
				<stop  offset="0.2151" style="stop-color:#F27808"/>
				<stop  offset="0.4358" style="stop-color:#FF5C00"/>
				<stop  offset="0.9888" style="stop-color:#FF8E00"/>
			</linearGradient>
			<path style="fill:url(#SVGID_00000126318631655621938490000010130378334206424976_);" d="M1931.2,1141.5c0,0,26.4,49.6,39.9,88.8
				c0.3-1.4,0.5-2.8,0.7-4.2c49.7,160.1,55.1,294.4-96,439.7c10.6-5.3,395.8-92.6,274-684.4c51.2,88.7,111.6,218.9,78,402.6
				c63.4-76,93.8-217.3,95-313.9c5.9-445.5-319.5-543.1-419.2-736c-91.6-177.4-4.6-254.2,18-282.7c0,0-103.8,67.3-130.1,168.6
				c-34.2,131.8-8.2,181.2,80.9,277.8c87.3,94.5,97.6,166.9,96.5,172.3c-8.5,42.3-34.1,201.5-81.7,266.6
				c18-102.6-41-265.1-136.7-316.6c1.2,2.9,98,230.3-1.2,356.1c-28.9,36.6-122.1,65.4-122.1,65.4s34.4,200.5-90.5,196.6
				c0.2,0.4,0.3,0.8,0.5,1.2C1820.1,1489,1931.2,1141.5,1931.2,1141.5z"/>
			
				<linearGradient id="SVGID_00000044871506335630126880000005537146628453662356_" gradientUnits="userSpaceOnUse" x1="743.342" y1="2330.7017" x2="743.342" y2="51.4105">
				<stop  offset="4.469274e-02" style="stop-color:#E02F05"/>
				<stop  offset="0.2151" style="stop-color:#F27808"/>
				<stop  offset="0.4358" style="stop-color:#FF5C00"/>
				<stop  offset="0.9888" style="stop-color:#FF8E00"/>
			</linearGradient>
			<path style="fill:url(#SVGID_00000044871506335630126880000005537146628453662356_);" d="M1133.6,1241.9c-9.2,5.2-19,7-30.6,6.4
				c-133.6-8.1-84.8-202.8-84.8-202.8s-62.8-32.5-91.6-69.1c-99.1-125.8-2.4-353.3-1.2-356.1c-95.7,51.5-154.8,214-136.7,316.6
				c-47.5-65.1-73.2-224.3-81.7-266.6c-1.1-5.5,9.3-77.8,96.5-172.3c89.1-96.6,115.1-146.1,80.9-277.8
				C858.1,118.7,754.3,51.4,754.3,51.4c22.6,28.5,109.6,105.3,18,282.7c-99.6,192.9-425,290.5-419.2,736
				c1.3,96.6,31.7,237.9,95,313.9c-33.6-183.7,26.8-313.9,78-402.6c-121.9,591.8,263.3,679,273.9,684.4
				c-142.7-137.2-145.9-264.6-103.8-413.3c7.9-39.2,46.2-111,46.2-111S852.8,1486.8,1133.6,1241.9z"/>
			
				<linearGradient id="SVGID_00000142146646965035707270000015351660050523753645_" gradientUnits="userSpaceOnUse" x1="1148.9429" y1="2330.7017" x2="1148.9429" y2="51.4105">
				<stop  offset="4.469274e-02" style="stop-color:#E02F05"/>
				<stop  offset="0.2151" style="stop-color:#F27808"/>
				<stop  offset="0.4358" style="stop-color:#FF5C00"/>
				<stop  offset="0.9888" style="stop-color:#FF8E00"/>
			</linearGradient>
			<path style="fill:url(#SVGID_00000142146646965035707270000015351660050523753645_);" d="M1153.6,1685
				c-25.8,0.5-54.6,2.6-53.5,27.7c0.7,16.2,30.3,15.3,44.2,14.8c25.2-0.9,54.6-2.1,53.5-27.3
				C1197.1,1683.7,1168.4,1684.7,1153.6,1685z"/>
			<path class="st5" d="M832.4,1429.5c8.3-17.8,23-30.2,40.4-34.8l26.2-0.8c14.8,3,27.1,12.1,34.6,25.8c1.2-1.6,2.4-3.3,3.7-5.2
				c13.2-18.5,29.3-24.9,42-26.8l31.7-0.1l22.1-0.9c4-0.2,7.4-0.3,10.5-0.4c3.4-9.2,9.6-17.1,17.5-22.8c5.7-4,12.3-7,19.6-8.5
				c19.9-37.1,38.1-75.3,54.4-114c-0.5,0.3-1,0.6-1.6,0.9c-280.8,244.9-391.2-100.4-391.2-100.4s-38.3,71.8-46.2,111
				c2.4-8.7,5-17.5,7.8-26.4c17.3,97,45.3,199,92.2,290.7c14.5-33.8,28.9-71.5,36-87L832.4,1429.5z"/>
			<path class="st5" d="M1677.9,1388.2c14.8,0.7,29.4,1.4,44.1,2.1l83.9,4.2l-0.7,0.7c4.4,0.3,9.2,0.6,14.5,1
				c49.5,3.3,81.5,31.3,81.5,71.4c0,1.2-0.1,2.3-0.1,3.5c33.6-77.8,55.5-160.9,69.9-240.7v0c-13.5-39.3-39.9-88.8-39.9-88.8
				s-111.1,347.5-393.9,98.1c21.9,49.8,47.4,98.7,75.1,145.8l66.3,2.1L1677.9,1388.2z"/>
		</g>
		<path class="st6" d="M989.4,2553.5c154-65.4,248.6-317.4,209.7-478.6c1.3,70.7-97.4,252.9-183.1,264.3
			C1033.1,2410.3,1052.9,2486.3,989.4,2553.5z"/>
		<path class="st6" d="M1106.5,2932.7c207-146.3,251.7-521.7,142.4-747.9c13.8,88.3-45.8,410.2-151.4,471.2
			C1145.4,2755.9,1146,2849.4,1106.5,2932.7z"/>
		<path class="st6" d="M1659.8,2339.2c-85.7-11.4-184.4-193.6-183.1-264.3c-38.9,161.2,55.8,413.2,209.7,478.6
			C1623,2486.3,1642.8,2410.3,1659.8,2339.2z"/>
		<path class="st6" d="M1578.5,2656.1c-105.6-61-165.3-382.9-151.4-471.2c-109.3,226.2-64.6,601.6,142.4,747.9
			C1529.9,2849.4,1530.5,2755.9,1578.5,2656.1z"/>
		<g>
			<path class="st0" d="M1292.1,931.7c-0.1,0-0.1,0.1-0.2,0.1l0,1.2C1292,932.6,1292,932.2,1292.1,931.7z"/>
			<path class="st0" d="M1291.8,930.8c0,0.4-0.1,0.8-0.2,1.3c0.1-0.1,0.1-0.1,0.2-0.2L1291.8,930.8z"/>
			<path class="st7" d="M1568.9,1383.9c-48-85.7-66.5-127.9-91.5-220c-30.5-82.2-48.6-213.6-14.9-292.3c-21.2-62.9-8-151.1,13.1-205
				c-198.8-33.3-179.7,213.6-391.8,202.4c45.8,53.6,136.5,27,146,20.4c-50.1,52.7-77.1,68.7-139.7,80.4
				c45.3,29.5,123.8,19.2,201.6-37.9c0.1-0.5,0.1-0.9,0.2-1.3l0,1.1c0.1,0,0.2-0.1,0.2-0.1c-0.1,0.4-0.1,0.9-0.2,1.3l0-1.2
				c-0.1,0.1-0.1,0.1-0.2,0.2c-1.3,8.1-40.8,56.3-69.1,160.1c0,0,0,0,0,0c-22.9,87.7-55.3,176.6-98,260.6
				c12.3,0.2,23.7,4.7,32.1,12.8c4.9,4.7,8.5,10.4,10.7,16.6c0.3,0,0.5,0,0.7,0l15.6-0.4h0l5.5-0.1c4.5-1.2,9.2-1.8,14.1-1.9
				c7.6-0.1,14.2,1.3,19.9,3.5l86.4-225.7c-0.9,4.5-28.3,139.1-32.5,222.9l1.8,0c11.6-0.1,17.4-0.1,28.9-0.2l44.7-0.2l-0.2,1.1
				c5.2-0.6,10.5-1,16.1-1c11.8,0.1,21.6,0.1,30.7,0.2c-6.3-83.3-30.8-218-31.6-222.8l86.5,223.4c1.3,0,2.5,0,3.8,0.1l2.6,0.1
				l0.1-0.1l11.7,0.2l71.1,1.2l-0.6,0.6C1551.5,1383.4,1560.2,1383.7,1568.9,1383.9z M1401.5,802.8c-22,30.7-138.8,46.9-138.8,46.9
				l83.7-79.5c11-9.9,24.5-16.6,39.1-19.1l52.1-9.7L1401.5,802.8z"/>
		</g>
		<path class="st8" d="M1351.4,786c7.7-9.7,18.6-16.6,30.8-19.2l29-6.3l-14.6,21.7c-8.6,12.8-22.2,21.3-37.4,23.4l-26.2,3.6
			L1351.4,786z"/>
		<g>
			<path class="st8" d="M1641.5,673.5c-22.5-19.7-48.3-27.8-78.1-22.2c-16.4,2.9-32.1,8.2-47.9,13.4c-13.7,26.2-30,93.3-30.1,158.7
				c43.7-96.5,103.1-136.2,198.2-93C1683.6,730.3,1658.5,688.3,1641.5,673.5z M1556.3,692.6l-24-8.7c0,0,32.2-20.4,65.4-4.1
				L1556.3,692.6z"/>
		</g>
		<path class="st5" d="M1686.5,2553.5c-154-65.4-248.6-317.4-209.7-478.6c-0.3,16.6,4.9,39.3,14.2,64.6c0,0,0,0,0,0.1v0
			c1.9,10.7,4.3,21.3,7,31.8l1.1,4.3c20.7,79.4,80.8,194.1,144,258.4C1641.4,2475,1650.7,2515.6,1686.5,2553.5z"/>
		<path class="st5" d="M1569.4,2932.7c-207-146.3-251.7-521.7-142.3-747.9c-1.3,8.6-2,19.2-2,31.7c-17.2,127.7-32.8,404.5,116,586.4
			v0C1540.3,2848.4,1550,2891.8,1569.4,2932.7z"/>
		<path class="st5" d="M1106.5,2932.7c19.1-40.2,28.8-82.8,28.3-127.2v0c157.9-190.4,133.5-486.7,115.6-605.7v0
			c-0.3-5.5-0.9-10.5-1.5-14.9C1358.2,2411,1313.4,2786.5,1106.5,2932.7z"/>
		<path class="st5" d="M989.4,2553.5c35.2-37.3,44.7-77.2,43.3-117.5v0c63.9-63.9,125-180,145.9-260.3l1.1-4.3
			c3.7-14.1,6.6-28.3,8.8-42.6c0,0,0-0.1,0-0.1c6.9-20.9,10.7-39.6,10.4-53.7C1238.1,2236,1143.4,2488.1,989.4,2553.5z"/>
		<path class="st5" d="M1875.8,1665.8c25.7-24.7,46.8-49,64-73.2c39.9-32.1,79.9-67.3,94.7-90.7c106.4-167.6,68-599.6,68-599.6
			l48,82.5v0C2270.1,1573.5,1886.4,1660.4,1875.8,1665.8z"/>
		<path class="st5" d="M2322.8,1070.1c-1.3,96.6-31.7,237.9-95,313.9c3.4-18.3,5.8-36.1,7.4-53.3v0c91-295.6-73.7-690.9-92.5-734.4
			C2240,702,2325.8,839.4,2322.8,1070.1z"/>
		<path class="st5" d="M1863.6,168.3c-36.1,56.4-67.3,155.4-11.6,307c-72.5-82.5-91.9-134.1-60.5-255.2
			c26.3-101.4,130.1-168.6,130.1-168.6C1907.9,68.7,1870.4,103.8,1863.6,168.3z"/>
		<path class="st5" d="M1887.7,934.3C1887.7,934.3,1887.7,934.3,1887.7,934.3c-0.5,0.9-1,1.7-1.5,2.5
			c-46.4,76.5-101.8,107.9-103.5,108.8c1-3.1,56.5-166.2,6.8-280.6c0,0,0,0,0-0.1c-10.9-78.9-38.3-143.2-39-144.8
			C1845.5,671.3,1904.3,831.6,1887.7,934.3z"/>
		<path class="st5" d="M800.1,1665.8c-10.6-5.3-395.5-92.5-274-683.8l46.3-79.7c0,0-38.4,431.9,68,599.6
			c15.1,23.8,56.4,60,97.1,92.6c0,0,0,0,0,0.1C754.5,1618.1,775.1,1641.8,800.1,1665.8z"/>
		<path class="st5" d="M441.3,1335.7c1.6,15.7,3.8,31.8,6.9,48.3c-63.4-76-93.8-217.3-95-313.9c-3-229.2,81.7-366.3,178.2-471.7
			C508.6,651.4,348.2,1043.8,441.3,1335.7L441.3,1335.7z"/>
		<path class="st5" d="M892.1,1045.7c-1.7-0.9-57.1-32.3-103.5-108.8c-18-102.6,41-265.1,136.7-316.6c-0.6,1.5-27.2,63.9-38.5,141.2
			c0,0,0,0,0,0.1C834.5,876,891,1042.5,892.1,1045.7z"/>
		<path class="st5" d="M824.8,474.3c55.5-151.9,23.7-250.9-12.5-307c-7.1-63.9-44.3-98.7-57.9-115.9c0,0,103.8,67.3,130.1,168.6
			C915.8,340.7,896.6,392.3,824.8,474.3z"/>
		<path class="st5" d="M1475.5,666.7c-3,7.7-5.9,16.2-8.5,25.2c-29.3-10.4-106.3-15.2-217.3,141.8c-33,46.7-80.9,61-120.3,63.6
			c-16.9-4.7-33-13.3-45.7-28.2C1295.8,880.3,1276.7,633.4,1475.5,666.7z"/>
		<path class="st8" d="M914.9,1465c5.3,13.6,8.9,23.1,11.2,29.8c4.6-7.4,9.9-15.2,21.7-31.6c8.6-12.1,12.9-18.1,21.5-30.1
			c4.7-6.6,10.9-11.4,19.3-11.8c7.9-0.4,14.1,3.9,15.1,13.3c4,35.7,6.1,53.5,10.1,89.2c-12.6,0.6-18.9,0.9-31.5,1.5
			c-1.4-14.1-2.1-21.2-3.5-35.3c-1.1-11.5-1.7-19.7-1.8-28c-4.6,7.4-9.9,15.4-19.4,29.2c-7.3,10.6-10.9,16-18.2,26.6
			c-7.2,10.5-12.5,12.1-20.2,12.6c-7.6,0.4-12.5-0.6-16.2-10.5c-3.7-10.1-5.5-15.1-9.2-25.2c-5-13.7-7.3-20.7-9.3-27.5
			c-3.1,7.7-7.2,17.7-11.9,28.8c-6.4,14.6-9.5,21.9-15.9,36.6c-12.4,0.8-18.6,1.3-31,2.2c14-30.9,28.1-61.7,42.2-92.5
			c4.6-9.8,12.5-14.8,20.5-15.3c8.1-0.5,12.8,3.3,15.4,9.9C908.2,1448.1,910.4,1453.7,914.9,1465z"/>
		<path class="st8" d="M1160.4,1474.1c-5.5,34.7-41.1,48-71.9,48.3c-42.9,0.5-63.3-9.7-63.3-34.1c0-3,0.3-6.3,0.9-9.6
			c4.1-23.2,6.1-34.7,10.2-57.9c12.7-0.5,19-0.8,31.7-1.3c-4.2,23.1-6.2,34.7-10.4,57.9c-0.3,2.1-0.5,4-0.5,5.7c0,10.7,8,14,35.9,13
			c24.5-0.8,32.9-6.7,35.5-21.1c4.1-23.1,6.1-34.7,10.2-57.8c12.7-0.4,19.1-0.5,31.8-0.8C1166.6,1439.5,1164.5,1451.1,1160.4,1474.1
			z M1092.7,1388.1c5.7-0.2,9.6,2.7,9.6,7.9c0,7-6.1,11.2-13,11.4c-5.7,0.2-9.6-2.6-9.6-7.7
			C1079.7,1392.9,1085.8,1388.3,1092.7,1388.1z M1124.9,1387c5.7-0.2,9.6,2.8,9.6,7.9c0,7-6.1,11.2-13,11.4
			c-5.5,0.2-9.6-2.6-9.6-7.8C1111.9,1391.8,1118,1387.2,1124.9,1387z"/>
		<path class="st8" d="M1262.1,1513c-21.1-22.2-31.7-33.3-52.8-55.3c-4.2,24-6.3,36.1-10.6,60.1c-11.5,0.2-17.3,0.4-28.8,0.6
			c5.9-34,8.9-51,14.8-84.9c2.3-13.6,11.3-19.3,20.8-19.5c3.8-0.1,7.6,0.8,11.8,5.3c21.1,22.1,31.7,33.2,52.8,55.4
			c4.3-24,6.4-36,10.7-60c11.5-0.1,17.3-0.1,28.8-0.2c-6.1,33.8-9.1,50.7-15.1,84.5c-2.4,13.6-11.5,19.3-20.7,19.4
			C1269.6,1518.4,1266.4,1517.5,1262.1,1513z"/>
		<path class="st8" d="M1416.1,1455.5c22.2,0.2,34,8.4,34,23.6c0,22.1-13.9,37.8-50.3,37.5c-31.8-0.3-63.5-0.3-95.3-0.2
			c10-10.5,15-15.8,24.9-26.3c31,0,46.5,0,77.6,0.3c8.6,0.1,12.2-2.6,12.2-8.6c0-4.1-3.2-6.1-9.6-6.2c-22.3-0.2-33.5-0.3-55.8-0.3
			c-23.3,0-33.7-9.7-33.7-24.5c0-20.7,14.2-36.5,50-36.4c35.6,0.1,53.3,0.3,88.9,0.9c-10,10.4-15.1,15.7-25.1,26.2
			c-28.4-0.4-42.6-0.5-71-0.6c-8.6,0-12.2,2.3-12.2,8.4c0,4.1,3.2,5.8,9.8,5.8C1382.6,1455.2,1393.8,1455.3,1416.1,1455.5z"/>
		<path class="st8" d="M1593.8,1418.9c-10.2,10.3-15.2,15.4-25.4,25.7c-14.6-0.5-21.8-0.7-36.4-1.1c-5.4,30-8.1,45.1-13.5,75.1
			c-12.7-0.3-19-0.5-31.7-0.7c5.3-30.1,8-45.1,13.3-75.2c-19.2-0.4-28.8-0.6-48-0.9c10.2-10.5,15.2-15.7,25.4-26.1
			C1516.3,1416.6,1555.1,1417.6,1593.8,1418.9z"/>
		<path class="st8" d="M1708.8,1499.6c-10,10-15,15-25.1,25c-32.8-1.6-65.6-2.9-98.5-4c6.1-33.8,12.1-67.6,18.2-101.3
			c39.5,1.6,78.9,3.3,118.3,5.3c-10.1,10.1-15.1,15.1-25.2,25.2c-26.5-1.3-39.7-1.9-66.2-3c-0.9,4.8-1.3,7.3-2.1,12.1
			c32.4,1.3,48.5,2,80.9,3.7c-8.8,8.8-13.2,13.2-22,22.1c-25.2-1.2-37.8-1.8-63-2.8c-1,5.5-1.5,8.3-2.4,13.8
			C1656.5,1497,1673.9,1497.8,1708.8,1499.6z"/>
		<path class="st8" d="M1859.9,1535.1c-16.9-1.2-25.4-1.8-42.3-2.9c-7.2-11.3-10.8-16.9-18-28.2c-19.4-1.2-29.1-1.8-48.6-2.9
			c-1.9,10.7-2.8,16-4.7,26.7c-12.7-0.7-19-1.1-31.6-1.7c3.7-20.7,5.5-31,9.2-51.6c35.6,1.9,53.4,3,88.9,5.3
			c10.5,0.7,19.7-3.7,19.7-11.9c0-6.7-5.8-10.5-15.6-11.1c-35.6-2.4-53.3-3.4-88.9-5.3c10.1-10.1,15.2-15.1,25.4-25.1
			c26.3,1.5,39.4,2.3,65.7,4.1c21.4,1.4,46.7,9.8,46.7,34.2c0,18.4-13.3,33-33,35.5c2.9,2.8,6.1,6.7,11.8,14.2
			C1850.6,1522.6,1853.7,1526.8,1859.9,1535.1z"/>
		<path class="st8" d="M300.8,1845.9c-4.4,24.8-6.5,37.1-10.9,61.9c-34.5,5.1-51.8,7.7-86.3,13.3c7.6-45.2,15.2-90.4,22.9-135.6
			c75.1-11.5,150.4-22.1,225.8-31.7c21.1-2.6,30.5-18,30.5-31.2c0-10.2-7.2-18.4-22.2-16.5c-88.4,11.2-176.5,23.7-264.5,37.6
			c-31.1-19.4-62.2-38.7-93.4-57.9c119.2-20.4,238.7-38.2,358.7-53.3c48.4-8.8,110.9,12,110.3,69.9
			c-0.7,76.3-77.2,118.2-144.6,126.3C384.9,1834,342.8,1839.8,300.8,1845.9z"/>
		<path class="st8" d="M854.6,1594.9c-4,22.5-6.7,37.7-9.8,55.2c-1.6,8.7-3.2,18-5.2,29c11.2,12,18.3,18.8,18.3,18.8
			s-31.2-0.1-75.6-11.7c-27.5,2.1-55,4.4-82.5,6.9c2.4-13.6,4.4-24.6,6.2-35.1c-23.2-11.4-47.1-26-70.2-44.9c-2.6,0.2-5.2,0.5-8,0.8
			c-15,85.6-29.9,171.2-44.9,256.8c35-3.7,52.5-5.4,87.5-8.7c5.5-31.7,11.1-63.3,16.6-95c46.4-4.2,92.8-8,139.3-11.3
			c-5.6,31.5-11.1,63.1-16.6,94.7c34.9-2.6,52.4-3.8,87.3-5.9c7-39.4,13.9-78.8,20.9-118.2c8-45.6,16.1-91.1,24.1-136.7
			C907,1591.5,889.5,1592.6,854.6,1594.9z"/>
		<path class="st8" d="M1125.3,1838.1c-70.5,2.4-167.8-12.3-168.3-100.4c-0.7-119.4,110.4-159.2,214.8-161.3
			c72.2-1.5,167.7,14.8,168.4,104.7C1341.1,1801.3,1225,1834.8,1125.3,1838.1z M1158.2,1650.2c-54.6,1.4-115.4,6.9-113.1,74.3
			c1.5,43.4,64,41.1,93.4,39.8c53.3-2.4,115.5-5.6,113.1-73.2C1250.1,1646.7,1189.4,1649.4,1158.2,1650.2z"/>
		<path class="st8" d="M1355.3,1830.8c15-84,30-168,45-252c99.7,1.1,199.3,4,298.8,8.7c-23.4,23.4-46.7,46.9-70,70.4
			c-51.6-1.9-103.1-3.4-154.7-4.5c-1.4,8.4-2,12.6-3.4,21.1c65.3,1.4,130.6,3.5,195.9,6.2c-23.9,23.5-35.8,35.3-59.7,59
			c-49.1-1.7-98.1-3-147.2-3.9c-1.7,9.5-2.5,14.2-4.2,23.7c70.8,1.3,141.5,3.5,212.2,6.5c-23.1,23.1-46.2,46.3-69.2,69.6
			C1517.7,1832.7,1436.5,1831.2,1355.3,1830.8z"/>
		<path class="st8" d="M1939.6,1669.2c-4.2,24.4-8.4,48.7-12.6,73.1c-15.8-18.3-31.7-36.6-47.6-54.9c-36.7,8.1-61.4,8.3-61.4,8.3
			s14.9-14.2,35.5-38.1c-5.3-6.1-10.5-12.1-15.9-18.2c-10.4-11.9-20.7-23.8-31.1-35.7c-11.7-13.2-21.9-16.1-32.1-16.7
			c-25.7-1.6-51,12.6-57.4,49.9c-8,45-16,89.9-24,134.8c-4,22.3-8,44.7-11.9,67c31.8,1.5,47.6,2.4,79.4,4.2
			c8.1-45.8,16.1-91.5,24.2-137.3c40.3,45.6,80.5,91.2,120.5,137c11.3,13.3,21.2,16.8,32.1,17.7c25.3,2.1,50.6-11.1,57.4-48.2
			c11.3-64.1,22.7-128.1,34-192.2C1998.7,1642.4,1968,1658.1,1939.6,1669.2z"/>
		<path class="st8" d="M2033.7,1864.2c14.8-82.6,29.7-165.2,44.5-247.8c34.8,3.6,52.2,5.5,87,9.5c-14.8,82.4-29.6,164.8-44.4,247.2
			C2086,1869.3,2068.5,1867.6,2033.7,1864.2z"/>
		<path class="st8" d="M2417.1,1911.7c-21-29-42-58-63.1-86.9c-31.1,21.6-62.2,43.3-93.2,65c-36.1-4.6-72.2-8.9-108.4-13.1
			c30.8-21.4,61.7-42.7,92.6-63.9c46.6-31.8,60.9-39.5,68.1-42.7c-5.3-5.6-16.5-16.6-45.1-53.9c-22.3-28.7-44.6-57.4-67-86.1
			c40.3,4.8,80.5,10,120.7,15.6c19.7,27.3,39.4,54.6,59,81.9c28.6-20.3,57.2-40.4,85.9-60.5c37.4,6,74.7,12.2,112,18.6
			c-32.6,20.7-65.2,41.5-97.8,62.4c-33.7,21.7-48,29.8-57.4,34.4c10.1,8.7,22.9,24.6,52.5,64c21.2,28.2,42.3,56.4,63.3,84.7
			C2498.6,1924.4,2457.9,1917.8,2417.1,1911.7z"/>
		<g>
			<path class="st0" d="M1158.2,1650.2c-47.6,1.2-99.8,5.6-111,51.3c67.4-2.7,135.6-4.6,204.5-5.7c0-1.6,0-3.1,0-4.7
				C1250.1,1646.7,1189.4,1649.4,1158.2,1650.2z"/>
			<path class="st0" d="M1784.2,1707.9c0.8,0.1,1.6,0.1,2.4,0.2c-0.7-0.8-1.4-1.6-2.1-2.3
				C1784.4,1706.4,1784.3,1707.1,1784.2,1707.9z"/>
			<path class="st0" d="M2165.2,1625.9c-34.8-4-52.2-5.9-87-9.5c-6.9,38.5-13.8,77.1-20.8,115.6c29.1,3.3,58.1,6.7,86.8,10.4
				C2151.2,1703.6,2158.2,1664.8,2165.2,1625.9z"/>
			<path class="st0" d="M941.9,1589.6c-34.9,1.9-52.4,3-87.3,5.3c-4,22.5-6.7,37.7-9.8,55.2c-1.6,8.7-3.2,18-5.2,29
				c11.2,12,18.3,18.8,18.3,18.8s-31.2-0.1-75.6-11.7c-27.5,2.1-55,4.4-82.5,6.9c2.4-13.6,4.4-24.6,6.2-35.1
				c-23.2-11.4-47.1-26-70.2-44.9c-2.6,0.2-5.2,0.5-8,0.8c-6.9,39.6-13.8,79.2-20.8,118.7c102.2-10.6,207-18.9,314-25
				C928,1668.3,934.9,1628.9,941.9,1589.6z"/>
			<path class="st0" d="M2028.5,1620c-29.8,22.3-60.5,38-88.9,49.1c-2.9,16.7-5.8,33.4-8.6,50.1c26.4,2.4,52.6,4.9,78.7,7.6
				C2015.9,1691.3,2022.2,1655.7,2028.5,1620z"/>
			<path class="st0" d="M571.6,1702.3c0.6-57.9-62-78.6-110.3-69.9c-120,15.1-239.5,32.9-358.7,53.3c31.2,19.2,62.3,38.5,93.4,57.9
				c88-13.9,176.1-26.4,264.5-37.6c15.1-1.9,22.2,6.4,22.2,16.5c0,9.4-4.8,19.8-15.1,26.1c32.3-4.1,64.9-7.9,97.8-11.6
				C569.3,1726.4,571.5,1714.8,571.6,1702.3z"/>
			<path class="st0" d="M1784.5,1705.7c0.7,0.8,1.4,1.6,2.1,2.3c39.8,2.6,79.2,5.6,118.4,8.9c-8.5-9.8-17-19.7-25.6-29.5
				c-36.7,8.1-61.4,8.3-61.4,8.3s14.9-14.2,35.5-38.1c-5.3-6.1-10.5-12.1-15.9-18.2c-10.4-11.9-20.7-23.8-31.1-35.7
				c-11.7-13.2-21.9-16.1-32.1-16.7c-25.7-1.6-51,12.6-57.4,49.9c-3.9,22.1-7.9,44.2-11.8,66.2c26.5,1.4,52.8,2.9,79,4.6
				C1784.3,1707.1,1784.4,1706.4,1784.5,1705.7z"/>
			<path class="st0" d="M2423.4,1782.6c9.4-4.6,23.6-12.7,57.4-34.4c32.5-20.9,65.1-41.7,97.7-62.4c-37.3-6.4-74.6-12.6-112-18.6
				c-28.7,20-57.4,40.2-85.9,60.5c-19.6-27.3-39.3-54.6-59-81.9c-40.2-5.5-80.4-10.7-120.7-15.6c22.4,28.6,44.7,57.3,67,86.1
				c23.2,30.3,35,43.2,41.4,50c39.9,6.4,79.3,13.1,118.3,20.3C2426.2,1785,2424.8,1783.7,2423.4,1782.6z"/>
			<path class="st0" d="M1158.2,1650.2c31.2-0.8,91.9-3.5,93.5,40.8c0.1,1.6,0,3.2,0,4.7c29.2-0.4,58.6-0.7,88-0.9
				c0.3-4.5,0.5-9.1,0.5-13.8c-0.7-89.9-96.2-106.2-168.4-104.7c-94.4,1.9-194.3,34.7-212,129.2c29-1.5,58.1-2.9,87.4-4.1
				C1058.3,1655.8,1110.5,1651.4,1158.2,1650.2z"/>
			<path class="st0" d="M1646.8,1700.5c6-5.9,12.5-12.3,20.2-19.9c-65.3-2.8-130.6-4.8-195.9-6.2c1.4-8.4,2-12.6,3.4-21.1
				c51.6,1.1,103.1,2.6,154.7,4.5c23.3-23.5,46.6-47,70-70.4c-99.6-4.7-199.2-7.6-298.8-8.7c-6.9,38.7-13.8,77.4-20.7,116
				c0.1,0,0.2,0,0.4,0C1470,1694.8,1559,1696.7,1646.8,1700.5z"/>
			
				<linearGradient id="SVGID_00000098941707876111839510000013500604985561845383_" gradientUnits="userSpaceOnUse" x1="384.5508" y1="822.8554" x2="384.5508" y2="1869.3262">
				<stop  offset="0" style="stop-color:#EDEBE9"/>
				<stop  offset="0" style="stop-color:#E7E3E0"/>
				<stop  offset="3.752073e-02" style="stop-color:#D8D5D3"/>
				<stop  offset="0.1095" style="stop-color:#B1B1AF"/>
				<stop  offset="0.2078" style="stop-color:#737777"/>
				<stop  offset="0.264" style="stop-color:#4C5354"/>
				<stop  offset="0.2677" style="stop-color:#4E5556"/>
				<stop  offset="0.3751" style="stop-color:#909495"/>
				<stop  offset="0.4654" style="stop-color:#C0C2C3"/>
				<stop  offset="0.5341" style="stop-color:#DEDEDF"/>
				<stop  offset="0.573" style="stop-color:#E9E9EA"/>
				<stop  offset="0.6348" style="stop-color:#DFE0E1"/>
				<stop  offset="0.7388" style="stop-color:#C5C7CA"/>
				<stop  offset="0.8715" style="stop-color:#9B9FA4"/>
				<stop  offset="0.8764" style="stop-color:#999DA2"/>
				<stop  offset="1" style="stop-color:#D9D9D9"/>
				<stop  offset="1" style="stop-color:#B1B1B1"/>
			</linearGradient>
			<path style="fill:url(#SVGID_00000098941707876111839510000013500604985561845383_);" d="M226.5,1785.5
				c-7.6,45.2-15.2,90.4-22.9,135.6c34.5-5.5,51.7-8.2,86.3-13.3c4.4-24.8,6.5-37.2,10.9-61.9c42-6.1,84.1-11.9,126.3-17.3
				c56.3-6.8,118.9-37.2,138.4-91.5c-32.9,3.6-65.5,7.5-97.8,11.6c-4.2,2.5-9.3,4.4-15.4,5.2C376.9,1763.4,301.6,1774,226.5,1785.5z
				"/>
			
				<linearGradient id="SVGID_00000178189216488561953750000010574027147321875123_" gradientUnits="userSpaceOnUse" x1="1148.3208" y1="822.8554" x2="1148.3208" y2="1869.3262">
				<stop  offset="0" style="stop-color:#EDEBE9"/>
				<stop  offset="0" style="stop-color:#E7E3E0"/>
				<stop  offset="3.752073e-02" style="stop-color:#D8D5D3"/>
				<stop  offset="0.1095" style="stop-color:#B1B1AF"/>
				<stop  offset="0.2078" style="stop-color:#737777"/>
				<stop  offset="0.264" style="stop-color:#4C5354"/>
				<stop  offset="0.2677" style="stop-color:#4E5556"/>
				<stop  offset="0.3751" style="stop-color:#909495"/>
				<stop  offset="0.4654" style="stop-color:#C0C2C3"/>
				<stop  offset="0.5341" style="stop-color:#DEDEDF"/>
				<stop  offset="0.573" style="stop-color:#E9E9EA"/>
				<stop  offset="0.6348" style="stop-color:#DFE0E1"/>
				<stop  offset="0.7388" style="stop-color:#C5C7CA"/>
				<stop  offset="0.8715" style="stop-color:#9B9FA4"/>
				<stop  offset="0.8764" style="stop-color:#999DA2"/>
				<stop  offset="1" style="stop-color:#D9D9D9"/>
				<stop  offset="1" style="stop-color:#B1B1B1"/>
			</linearGradient>
			<path style="fill:url(#SVGID_00000178189216488561953750000010574027147321875123_);" d="M1125.3,1838.1
				c95.8-3.2,206.6-34.3,214.4-143.2c-29.5,0.1-58.8,0.4-88,0.9c-0.7,63-61.1,66.1-113.2,68.4c-29.4,1.3-92,3.7-93.4-39.8
				c-0.3-8.7,0.5-16.3,2.1-23c-29.3,1.2-58.4,2.5-87.4,4.1c-1.9,10-2.9,20.7-2.8,32.2C957.5,1825.8,1054.7,1840.5,1125.3,1838.1z"/>
			
				<linearGradient id="SVGID_00000072239832773068824900000006889299580663558543_" gradientUnits="userSpaceOnUse" x1="1511.719" y1="822.8554" x2="1511.719" y2="1869.3262">
				<stop  offset="0" style="stop-color:#EDEBE9"/>
				<stop  offset="0" style="stop-color:#E7E3E0"/>
				<stop  offset="3.752073e-02" style="stop-color:#D8D5D3"/>
				<stop  offset="0.1095" style="stop-color:#B1B1AF"/>
				<stop  offset="0.2078" style="stop-color:#737777"/>
				<stop  offset="0.264" style="stop-color:#4C5354"/>
				<stop  offset="0.2677" style="stop-color:#4E5556"/>
				<stop  offset="0.3751" style="stop-color:#909495"/>
				<stop  offset="0.4654" style="stop-color:#C0C2C3"/>
				<stop  offset="0.5341" style="stop-color:#DEDEDF"/>
				<stop  offset="0.573" style="stop-color:#E9E9EA"/>
				<stop  offset="0.6348" style="stop-color:#DFE0E1"/>
				<stop  offset="0.7388" style="stop-color:#C5C7CA"/>
				<stop  offset="0.8715" style="stop-color:#9B9FA4"/>
				<stop  offset="0.8764" style="stop-color:#999DA2"/>
				<stop  offset="1" style="stop-color:#D9D9D9"/>
				<stop  offset="1" style="stop-color:#B1B1B1"/>
			</linearGradient>
			<path style="fill:url(#SVGID_00000072239832773068824900000006889299580663558543_);" d="M1598.9,1835.4
				c23-23.2,46.1-46.4,69.2-69.6c-70.7-3-141.4-5.2-212.2-6.5c1.7-9.5,2.5-14.2,4.2-23.7c49.1,0.9,98.1,2.3,147.2,3.9
				c16.2-16,26.9-26.6,39.5-39.1c-87.8-3.7-176.8-5.7-266.9-5.7c-0.1,0-0.2,0-0.4,0c-8.1,45.3-16.2,90.6-24.3,136
				C1436.5,1831.2,1517.7,1832.7,1598.9,1835.4z"/>
			
				<linearGradient id="SVGID_00000103230201489933199440000004573283143569193879_" gradientUnits="userSpaceOnUse" x1="2088.9741" y1="822.8554" x2="2088.9741" y2="1869.3262">
				<stop  offset="0" style="stop-color:#EDEBE9"/>
				<stop  offset="0" style="stop-color:#E7E3E0"/>
				<stop  offset="3.752073e-02" style="stop-color:#D8D5D3"/>
				<stop  offset="0.1095" style="stop-color:#B1B1AF"/>
				<stop  offset="0.2078" style="stop-color:#737777"/>
				<stop  offset="0.264" style="stop-color:#4C5354"/>
				<stop  offset="0.2677" style="stop-color:#4E5556"/>
				<stop  offset="0.3751" style="stop-color:#909495"/>
				<stop  offset="0.4654" style="stop-color:#C0C2C3"/>
				<stop  offset="0.5341" style="stop-color:#DEDEDF"/>
				<stop  offset="0.573" style="stop-color:#E9E9EA"/>
				<stop  offset="0.6348" style="stop-color:#DFE0E1"/>
				<stop  offset="0.7388" style="stop-color:#C5C7CA"/>
				<stop  offset="0.8715" style="stop-color:#9B9FA4"/>
				<stop  offset="0.8764" style="stop-color:#999DA2"/>
				<stop  offset="1" style="stop-color:#D9D9D9"/>
				<stop  offset="1" style="stop-color:#B1B1B1"/>
			</linearGradient>
			<path style="fill:url(#SVGID_00000103230201489933199440000004573283143569193879_);" d="M2120.8,1873.1
				c7.8-43.6,15.7-87.1,23.5-130.7c-28.7-3.7-57.7-7.2-86.8-10.4c-7.9,44-15.8,88.1-23.7,132.1
				C2068.5,1867.6,2086,1869.3,2120.8,1873.1z"/>
			
				<linearGradient id="SVGID_00000100384423546827005750000005102073086086230707_" gradientUnits="userSpaceOnUse" x1="751.9639" y1="822.8554" x2="751.9639" y2="1869.3262">
				<stop  offset="0" style="stop-color:#EDEBE9"/>
				<stop  offset="0" style="stop-color:#E7E3E0"/>
				<stop  offset="3.752073e-02" style="stop-color:#D8D5D3"/>
				<stop  offset="0.1095" style="stop-color:#B1B1AF"/>
				<stop  offset="0.2078" style="stop-color:#737777"/>
				<stop  offset="0.264" style="stop-color:#4C5354"/>
				<stop  offset="0.2677" style="stop-color:#4E5556"/>
				<stop  offset="0.3751" style="stop-color:#909495"/>
				<stop  offset="0.4654" style="stop-color:#C0C2C3"/>
				<stop  offset="0.5341" style="stop-color:#DEDEDF"/>
				<stop  offset="0.573" style="stop-color:#E9E9EA"/>
				<stop  offset="0.6348" style="stop-color:#DFE0E1"/>
				<stop  offset="0.7388" style="stop-color:#C5C7CA"/>
				<stop  offset="0.8715" style="stop-color:#9B9FA4"/>
				<stop  offset="0.8764" style="stop-color:#999DA2"/>
				<stop  offset="1" style="stop-color:#D9D9D9"/>
				<stop  offset="1" style="stop-color:#B1B1B1"/>
			</linearGradient>
			<path style="fill:url(#SVGID_00000100384423546827005750000005102073086086230707_);" d="M670.4,1862c5.5-31.7,11.1-63.3,16.6-95
				c46.4-4.2,92.8-8,139.3-11.3c-5.6,31.5-11.1,63.1-16.6,94.7c34.9-2.6,52.4-3.8,87.3-5.9c7-39.4,13.9-78.8,20.9-118.2
				c1.1-6.2,2.2-12.4,3.3-18.6c-107,6.1-211.8,14.5-314,25c-8,46-16.1,92-24.1,138.1C617.9,1867,635.4,1865.3,670.4,1862z"/>
			
				<linearGradient id="SVGID_00000153686485629622793960000015031797891798617742_" gradientUnits="userSpaceOnUse" x1="1898.1047" y1="822.8554" x2="1898.1047" y2="1869.3262">
				<stop  offset="0" style="stop-color:#EDEBE9"/>
				<stop  offset="0" style="stop-color:#E7E3E0"/>
				<stop  offset="3.752073e-02" style="stop-color:#D8D5D3"/>
				<stop  offset="0.1095" style="stop-color:#B1B1AF"/>
				<stop  offset="0.2078" style="stop-color:#737777"/>
				<stop  offset="0.264" style="stop-color:#4C5354"/>
				<stop  offset="0.2677" style="stop-color:#4E5556"/>
				<stop  offset="0.3751" style="stop-color:#909495"/>
				<stop  offset="0.4654" style="stop-color:#C0C2C3"/>
				<stop  offset="0.5341" style="stop-color:#DEDEDF"/>
				<stop  offset="0.573" style="stop-color:#E9E9EA"/>
				<stop  offset="0.6348" style="stop-color:#DFE0E1"/>
				<stop  offset="0.7388" style="stop-color:#C5C7CA"/>
				<stop  offset="0.8715" style="stop-color:#9B9FA4"/>
				<stop  offset="0.8764" style="stop-color:#999DA2"/>
				<stop  offset="1" style="stop-color:#D9D9D9"/>
				<stop  offset="1" style="stop-color:#B1B1B1"/>
			</linearGradient>
			<path style="fill:url(#SVGID_00000153686485629622793960000015031797891798617742_);" d="M1905.1,1842.7
				c11.3,13.3,21.2,16.8,32.1,17.7c25.3,2.1,50.6-11.1,57.4-48.2c5-28.5,10.1-56.9,15.1-85.4c-26.1-2.7-52.3-5.2-78.7-7.6
				c-1.3,7.7-2.7,15.4-4,23.1c-7.3-8.5-14.7-16.9-22-25.4c-39.2-3.4-78.6-6.3-118.4-8.9C1826.2,1752.8,1865.7,1797.7,1905.1,1842.7z
				"/>
			
				<linearGradient id="SVGID_00000067215597073472375930000013145293891018922172_" gradientUnits="userSpaceOnUse" x1="1732.5801" y1="822.8554" x2="1732.5801" y2="1869.3262">
				<stop  offset="0" style="stop-color:#EDEBE9"/>
				<stop  offset="0" style="stop-color:#E7E3E0"/>
				<stop  offset="3.752073e-02" style="stop-color:#D8D5D3"/>
				<stop  offset="0.1095" style="stop-color:#B1B1AF"/>
				<stop  offset="0.2078" style="stop-color:#737777"/>
				<stop  offset="0.264" style="stop-color:#4C5354"/>
				<stop  offset="0.2677" style="stop-color:#4E5556"/>
				<stop  offset="0.3751" style="stop-color:#909495"/>
				<stop  offset="0.4654" style="stop-color:#C0C2C3"/>
				<stop  offset="0.5341" style="stop-color:#DEDEDF"/>
				<stop  offset="0.573" style="stop-color:#E9E9EA"/>
				<stop  offset="0.6348" style="stop-color:#DFE0E1"/>
				<stop  offset="0.7388" style="stop-color:#C5C7CA"/>
				<stop  offset="0.8715" style="stop-color:#9B9FA4"/>
				<stop  offset="0.8764" style="stop-color:#999DA2"/>
				<stop  offset="1" style="stop-color:#D9D9D9"/>
				<stop  offset="1" style="stop-color:#B1B1B1"/>
			</linearGradient>
			<path style="fill:url(#SVGID_00000067215597073472375930000013145293891018922172_);" d="M1681,1838.8
				c31.8,1.5,47.6,2.4,79.4,4.2c7.9-45.1,15.9-90.1,23.8-135.1c-26.2-1.7-52.6-3.2-79-4.6c-4.1,22.9-8.2,45.7-12.2,68.6
				C1688.9,1794.1,1685,1816.5,1681,1838.8z"/>
			
				<linearGradient id="SVGID_00000057138242689611035450000014821420598360295072_" gradientUnits="userSpaceOnUse" x1="2345.8303" y1="822.8554" x2="2345.8303" y2="1869.3262">
				<stop  offset="0" style="stop-color:#EDEBE9"/>
				<stop  offset="0" style="stop-color:#E7E3E0"/>
				<stop  offset="3.752073e-02" style="stop-color:#D8D5D3"/>
				<stop  offset="0.1095" style="stop-color:#B1B1AF"/>
				<stop  offset="0.2078" style="stop-color:#737777"/>
				<stop  offset="0.264" style="stop-color:#4C5354"/>
				<stop  offset="0.2677" style="stop-color:#4E5556"/>
				<stop  offset="0.3751" style="stop-color:#909495"/>
				<stop  offset="0.4654" style="stop-color:#C0C2C3"/>
				<stop  offset="0.5341" style="stop-color:#DEDEDF"/>
				<stop  offset="0.573" style="stop-color:#E9E9EA"/>
				<stop  offset="0.6348" style="stop-color:#DFE0E1"/>
				<stop  offset="0.7388" style="stop-color:#C5C7CA"/>
				<stop  offset="0.8715" style="stop-color:#9B9FA4"/>
				<stop  offset="0.8764" style="stop-color:#999DA2"/>
				<stop  offset="1" style="stop-color:#D9D9D9"/>
				<stop  offset="1" style="stop-color:#B1B1B1"/>
			</linearGradient>
			<path style="fill:url(#SVGID_00000057138242689611035450000014821420598360295072_);" d="M2245,1812.7
				c-30.9,21.2-61.8,42.5-92.6,63.9c36.2,4.2,72.3,8.6,108.4,13.1c31-21.8,62.1-43.4,93.2-65c21.1,28.9,42.1,57.9,63.1,86.9
				c40.8,6.2,81.5,12.7,122.2,19.6c-21.1-28.3-42.2-56.5-63.3-84.7c-25.7-34.2-38.7-50.6-48.3-60.1c-39-7.1-78.4-13.9-118.3-20.3
				c1.5,1.6,2.7,2.8,3.7,3.9C2305.9,1773.2,2291.6,1780.9,2245,1812.7z"/>
		</g>
	</g>
</g>
</svg>
